<?xml version="1.0" encoding="utf-8"?>
<!-- Generator: Adobe Illustrator 25.2.0, SVG Export Plug-In . SVG Version: 6.00 Build 0)  -->
<svg version="1.1" id="Layer_1" xmlns="http://www.w3.org/2000/svg" xmlns:xlink="http://www.w3.org/1999/xlink" x="0px" y="0px"
	 viewBox="0 0 494.3 316" style="enable-background:new 0 0 494.3 316;" xml:space="preserve">
<style type="text/css">
	.st0{fill:#FBB040;stroke:#F15A29;stroke-width:5;stroke-miterlimit:10;}
	.st1{fill:#8DC63F;stroke:url(#SVGID_1_);stroke-width:5;stroke-miterlimit:10;}
	.st2{fill:url(#SVGID_2_);}
	.st3{fill:url(#SVGID_3_);}
	.st4{fill:url(#SVGID_4_);}
	.st5{fill:url(#SVGID_5_);}
	.st6{fill:url(#SVGID_6_);}
	.st7{fill:url(#SVGID_7_);}
	.st8{fill:url(#SVGID_8_);}
	.st9{fill:url(#SVGID_9_);}
	.st10{fill:url(#SVGID_10_);}
	.st11{fill:url(#SVGID_11_);}
	.st12{fill:url(#SVGID_12_);}
	.st13{fill:url(#SVGID_13_);}
	.st14{fill:url(#SVGID_14_);}
	.st15{fill:url(#SVGID_15_);}
	.st16{fill:url(#SVGID_16_);}
	.st17{fill:url(#SVGID_17_);}
	.st18{fill:url(#SVGID_18_);}
	.st19{fill:url(#SVGID_19_);}
</style>
<g>
	<path class="st0" d="M126.1,94.1h0.1c2.5,2.5,5,5,7.6,7.3c9.5,7.8,18.6,11.3,27.1,10.8l3.5-0.2c3.2-0.2,9.2-1.8,17.9-5h0.3l0.1,0.1
		v0.1c-0.6,1-1.2,2.9-2,5.7c-0.6,1.6-2.2,3.3-5.1,5c-11.2,7-16.5,14.6-16,22.5c0.2,3.7,1,7.4,2.2,11.1c-2.7,5.2-4.3,8.1-4.6,8.6
		l-2.7,0.1c-0.3,0-1.4-1.7-3.4-5.2c-1.4-2.1-3.9-4.8-7.5-7.9c-3.9-2.7-6.9-4.2-8.9-4.4l-3.2,0.2c-1.6-0.4-3-1-4.2-1.6
		c0.8-2.1,2.7-4.3,5.8-6.7c1.2-1,2.2-1.6,2.9-1.6c4.1-0.3,9.3,2,15.8,6.8h0.1c0.8-2.4,2.5-5.8,5.1-10c1.7-2.3,4.3-5.6,7.9-9.9v-0.3
		h-0.3l-9.3,1.3c-5.8,0.4-11.6-1-17.1-4v0.1l0.8,2.5h-0.1l-4.4,1l-17.1-18.4l0.1-0.1V102l-0.1-0.1C121.4,98,124.2,95.3,126.1,94.1z"
		/>
	<path class="st0" d="M175.1,47.6c3.6-2.3,5.9-3.1,6.7-2.4l0.1,0.1l3.2,8c3.8,8.2,8.5,14.8,14,19.7c2.3,2.1,4.6,3.6,7,4.8l6-7.8
		l1.4-1.8l5.2-2.9l0.4,0.4l1.3,1.3l-10.1,12.7c1.3,1.2,3.9,1.3,7.7,0.5l6.5-2.5l0.6,0.1v0.2l-1.8,2.3c-2.3,3-5.2,5-8.6,6.2
		c-3.4,0.3-6.3,0.1-8.7-0.6l-7.2,9c0.2,2.1,0.3,3.3,0.1,3.4l-6.2,2.3l0.1-0.1h-0.2l-0.1-0.1L175,47.9v-0.2L175.1,47.6z M192,77.4
		l5,11.9l4.6-5.8l-9.4-6.3L192,77.4z"/>
	<path class="st0" d="M223.6,19.2c6.4,0.9,16.1,5.2,29.1,12.9c5.3,3.5,10.4,7.6,15.4,12.4c2,2.1,4.4,5,7.2,8.9
		c2.7,4.6,4.2,8.3,4.5,11.1l0.1,0.1l-0.3,2c-0.1,1.2-0.9,2.4-2.4,3.9c-1.7,1.2-3.9,2.1-6.8,2.7c-4.7,0.7-9.9,1.1-15.6,1.1
		c-6.9-0.3-10.5-0.1-10.5,0.3c-0.6,1-1.6,1.4-3.2,1.2l-2.6-0.2v-0.1c-0.1-0.4-0.3-0.7-0.4-0.8l-3.2-0.3l-2.1-4.4v-0.3
		c3.4-1,5.1-1.6,5.2-1.8v-0.1c0.6-4.6,2.7-10.5,6.5-17.7c0.4-1,0.6-1.8,0.7-2.5l0.2-1.6c0.5-3.8-4.6-10.1-15.2-18.8
		c-5.2-4.2-7.9-6.5-8.3-6.9l-0.2-0.4v-0.3C222,19.2,222.6,19,223.6,19.2z M250.1,37.6v0.1c1.9,2.7,2.9,5.5,3.1,8.6
		c0.1,1.3,0.1,2.6,0,3.6l-0.5,4.1c-0.5,3.2-2.4,8.1-5.8,14.6l0.4,0.1c5.3,0.7,12.3-0.4,21-3.1c1.1-0.4,1.8-0.9,1.8-1.3
		c0.7-5.8-3.8-12.9-13.5-20.8C254.8,41.5,252.6,39.6,250.1,37.6z"/>
	<path class="st0" d="M313.1,61.2c3.5,2.8,5.1,4.7,4.8,5.7l-0.1,0.1l-6,5.9c-6,6.7-10,13.6-12.3,20.7c-1,3-1.5,5.8-1.5,8.6l9.5,3.1
		l2.2,0.7l4.7,4.1l-0.2,0.6l-0.7,1.7l-15.6-5.4c-0.6,1.7,0.4,4.3,2.5,7.8l4.8,5.5l0.1,0.5l-0.2,0.1l-2.7-1c-3.6-1.3-6.6-3.3-9.1-6.2
		c-1.6-3.3-2.6-6.2-2.9-8.7l-11-3.8c-1.8,1-2.8,1.4-3,1.3l-4.5-5.2l0.1,0.1l-0.1-0.2l0.1-0.1L312.7,61l0.2-0.1L313.1,61.2z
		 M292.6,88.4l-8.8,9.1l7.1,2.5l2-11.5L292.6,88.4z"/>
	<path class="st0" d="M175.7,254.1l-0.5,0.9c-1,1.8-3.6,2.3-7.9,1.3l-0.1,0.1c4.1,2.6,8.1,6.8,12.3,12.6c3.9,7.7,4.7,13.6,2.5,17.8
		l-0.5,0.9c-0.8,1.6-2,2.2-3.4,1.6c-6-0.7-10.9-2.4-15.1-4.8c-2-1.2-4.7-3.3-8.1-6.2l-0.6,0.4l-1.1,1.9c-0.1,0.2-0.4,0.2-0.6,0.1
		l-6-7l0.1-0.1l1.9-2.8l-9.1-10.6c-0.5-1.4-0.6-2.3-0.4-2.8c0.5-0.9,2-1,4.6-0.3c2,1.6,4.6,3.8,7.8,6.7c1.9-8.1,2.7-14.4,2.5-18.8
		c0-8.9-0.1-14.3-0.3-16.2c-2.2-2.3-3.3-4.3-3.3-5.9c0-1.2,0.6-3,1.5-5.3l-0.6-3.8l0.2-0.4c2.7,1.6,9.5,12.6,20.7,32.8L175.7,254.1z
		 M160.7,236.7c0.4,8.4,0.8,12.8,1.2,13l0.8,0.4c1.3,0.7,3,0.7,5.3,0.1l0.1-0.1L160.7,236.7z M160,258.4c0.3,2.5,0.3,5-0.1,7.6
		c-0.6,2.4-1.1,4.4-1.6,5.8l2.4,1.8c9.2,4.9,13.8,7.2,14,6.9l0.3-0.5c0.1-0.4-0.8-2.8-2.7-7.1c-1.1-2.2-2.9-4.6-5.5-7.2
		C165.3,264.8,163,262.4,160,258.4z"/>
	<path class="st0" d="M225.9,245.9c0.5,0.8,0.6,2.3,0.2,4.4l-0.2,1.2c-1.3,8.5-6.7,18.2-16,29c-3.2,3.5-7,7.1-11.2,10.6
		c5.7-2.1,12.1-2.6,19.4-1.3c3,0.5,6.7,1.6,10.9,3v-4.8c5-1.3,7.8-1.9,8.4-1.9l3.6,10.6l-3.1,2.9c-2,1.8-3.2,2.6-3.6,2.5
		c-6.7-2.7-12.8-4.4-18.2-5.3l-2.6-0.4c-9.3-1.6-16.8-1.2-22.7,1.2l-1.7,1l-3.6-2.9l0.1-0.1l-0.1-0.1c4.9-3.2,8.5-6,10.7-8.4
		c7-6.7,12.5-14.6,16.5-23.4c1.8-3.8,2.9-7.3,3.4-10.5c0.4-2.1,0.4-3.9,0-5.4c2.2-0.8,5.5-1.6,9.6-2.1V245.9z"/>
	<path class="st0" d="M275.7,237.9l0.1,0.1l0.4-0.3l2.9,0.1l0.1,0.1l0.2,4.2c5,5.6,10.4,10.6,16.2,15c2,1.5,5.4,3.5,10.3,5.9
		l5.8,2.7c0,3.3-0.8,7.4-2.5,12.1l-0.4,0.3c-6.8,0-11.2,0.4-13.2,1.2c-8.2,1.6-15.1,3.5-20.6,5.8c-5.5,2.2-11.9,5.2-19.2,8.8
		c-0.5,0.2-2-0.2-4.4-1.3l-0.1,0.1l0.1-0.2l-0.2-0.1l-0.1-0.1l8.5-31.8l-0.1-0.1l-7.2-1.1l-0.1-0.1c0.4-1,2.2-4.4,5.7-10.3l7.3-2.9
		l1.7-0.7l0.1,0.3l-6.2,33l0.1,0.1l29.6-9.8l-0.1-0.1l-20.3-20.1L275.7,237.9z"/>
	<path class="st0" d="M284.9,215c3.3-0.7,5.5-2.1,6.9-4.1l0.2-0.3c0.1-0.1,2.7,0.1,7.8,0.7c5.8,0.6,12.6,0.8,20.1,0.7l6.2-0.6
		l0.2,0.1c-2.2,4-3.4,6.8-3.8,8.3l-25.6,1c3.6,5.5,6.9,9.3,10,11.5l0.4,0.2c2.1,1.5,4.3,2.1,6.6,1.6c2-0.3,5.5-2.7,10.3-7.4
		c0.6-1,2.6-2.3,6-4h0.1l0.1,0.1c1.5,1.4,2.1,2.2,2,2.5c-1.5,8.7-2.4,13.2-2.6,13.4l0.1,0.1l12.1-17.1l-0.1-0.1l-9.5-5.3l7.1-7.4
		c8.1,3.1,12.5,5,13.2,5.3l-0.1,0.1c-0.1,4-0.4,6.3-0.7,6.8c-5.1,4.4-9.7,9.7-13.8,16c-2.9,4.5-5.1,9.2-6.4,13.8
		c-3.2,1.8-5.5,2.9-6.7,3.3l-3.6-17.1c-3,2.7-6.5,4.4-10.3,5.1c-3.9,0.2-7.1-0.6-9.7-2.5l-1.7-1.2c-2.5-1.8-5.5-5.5-9.1-11.2
		c-2.2-3.8-4.2-7.8-6-12L284.9,215z"/>
	<g>
		
			<linearGradient id="SVGID_1_" gradientUnits="userSpaceOnUse" x1="194.4825" y1="216.3544" x2="194.4825" y2="216.3544" gradientTransform="matrix(0.9963 -8.620000e-02 8.620000e-02 0.9963 -1.5786 -45.3301)">
			<stop  offset="0" style="stop-color:#FFF33B"/>
			<stop  offset="5.950000e-02" style="stop-color:#FFE029"/>
			<stop  offset="0.1303" style="stop-color:#FFD217"/>
			<stop  offset="0.2032" style="stop-color:#FEC90E"/>
			<stop  offset="0.2809" style="stop-color:#FDC70C"/>
			<stop  offset="0.6685" style="stop-color:#F3903F"/>
			<stop  offset="0.8876" style="stop-color:#ED683C"/>
			<stop  offset="1" style="stop-color:#E93E3A"/>
		</linearGradient>
		<path class="st1" d="M210.8,153.5"/>
		<g>
			<g>
				
					<linearGradient id="SVGID_2_" gradientUnits="userSpaceOnUse" x1="199.3663" y1="212.72" x2="269.3076" y2="212.72" gradientTransform="matrix(1 0 0 1 0 -61.7796)">
					<stop  offset="0" style="stop-color:#FFF33B"/>
					<stop  offset="5.950000e-02" style="stop-color:#FFE029"/>
					<stop  offset="0.1303" style="stop-color:#FFD217"/>
					<stop  offset="0.2032" style="stop-color:#FEC90E"/>
					<stop  offset="0.2809" style="stop-color:#FDC70C"/>
					<stop  offset="0.6685" style="stop-color:#F3903F"/>
					<stop  offset="0.8876" style="stop-color:#ED683C"/>
					<stop  offset="1" style="stop-color:#E93E3A"/>
				</linearGradient>
				<path class="st2" d="M264,162.3c-3.2-10-10.5-17.4-18.2-23.7c-8.7-7.1-18.2-13.2-27.7-18.8c-5.7-3.4-11.4-6.5-17.3-9.5
					c-1.3-0.7-2.5,0.1-2.7,1.6c-1.1,14.4,4.8,28.2,13.3,39.2c9.2,12,21.5,20.9,34.2,28.4c7.4,4.4,15.1,8.4,22.7,12.2
					c0.8,0.4,1.9,0.2,2.4-0.7c0.4-0.8,0.2-2.1-0.6-2.5c-13.2-6.7-26.5-13.5-38.4-22.6c-11-8.4-20.9-18.9-26.4-32.1
					c-2.8-6.9-4.2-14.3-3.6-21.8c-0.8,0.5-1.8,1-2.7,1.6c10.1,5.1,19.9,10.8,29.3,17.1c8.6,5.7,17.3,11.6,24.3,19.4
					c3.4,3.8,6.4,8.4,8,13.4C261.4,165.5,264.7,164.5,264,162.3L264,162.3z"/>
			</g>
		</g>
		<g>
			<g>
				
					<linearGradient id="SVGID_3_" gradientUnits="userSpaceOnUse" x1="246.4469" y1="192.085" x2="295.9288" y2="192.085" gradientTransform="matrix(1 0 0 1 0 -61.7796)">
					<stop  offset="0" style="stop-color:#FFF33B"/>
					<stop  offset="5.950000e-02" style="stop-color:#FFE029"/>
					<stop  offset="0.1303" style="stop-color:#FFD217"/>
					<stop  offset="0.2032" style="stop-color:#FEC90E"/>
					<stop  offset="0.2809" style="stop-color:#FDC70C"/>
					<stop  offset="0.6685" style="stop-color:#F3903F"/>
					<stop  offset="0.8876" style="stop-color:#ED683C"/>
					<stop  offset="1" style="stop-color:#E93E3A"/>
				</linearGradient>
				<path class="st3" d="M254.7,143.9c-4.4-13.2-6.5-27.1-6.1-41.1c0.1-4,0.4-8,0.9-11.9c-0.7,0.6-1.5,1.2-2.2,1.8
					c10,3.9,18.2,11.6,24.2,20.8c3.4,5.3,6.2,11,8.7,16.8c2.6,6,5,12,7.3,18.2c2.7,7,5.1,14.3,6.4,21.7c0.1,1,1.3,1.6,2.2,1.3
					c1-0.3,1.4-1.3,1.3-2.3c-1.3-6.8-3.3-13.4-5.7-19.9c-2.4-6.4-4.9-12.6-7.5-18.9c-4.8-11.4-10.5-22.5-19.4-31
					c-4.8-4.5-10.3-8.1-16.4-10.4c-1.2-0.4-2.1,0.7-2.2,1.8c-1.8,14.1-1.1,28.5,2,42.3c0.9,3.9,2,7.8,3.2,11.7
					c0.3,1,1.2,1.6,2.2,1.3C254.3,145.8,255,144.8,254.7,143.9L254.7,143.9z"/>
			</g>
		</g>
		<g>
			<g>
				
					<linearGradient id="SVGID_4_" gradientUnits="userSpaceOnUse" x1="167.9037" y1="267.8415" x2="262.8829" y2="267.8415" gradientTransform="matrix(1 0 0 1 0 -61.7796)">
					<stop  offset="0" style="stop-color:#FFF33B"/>
					<stop  offset="5.950000e-02" style="stop-color:#FFE029"/>
					<stop  offset="0.1303" style="stop-color:#FFD217"/>
					<stop  offset="0.2032" style="stop-color:#FEC90E"/>
					<stop  offset="0.2809" style="stop-color:#FDC70C"/>
					<stop  offset="0.6685" style="stop-color:#F3903F"/>
					<stop  offset="0.8876" style="stop-color:#ED683C"/>
					<stop  offset="1" style="stop-color:#E93E3A"/>
				</linearGradient>
				<path class="st4" d="M230.4,168.5c-13.8-1.3-28,2.4-39.9,9.8c-5.6,3.5-10.7,7.9-14.9,13.2c-4.6,5.8-8.6,12.9-9.1,20.5
					c-0.3,4.1,0.8,8.1,2.9,11.5c2.1,3.3,5,6,8,8.4c6,4.7,13,8.1,20.2,9.9c15.1,4,31.3,1.9,45.1-5.6c6.7-3.6,13-8.6,17.3-15.1
					c4.1-6.1,5.8-14.3,2.1-21.1c-0.8-1.6-2-3-3.3-4.1c-0.7-0.7-1.8-0.7-2.5,0c-0.6,0.7-0.7,2,0,2.6c5,4.4,5.4,11.5,2.6,17.4
					c-3.2,6.5-8.8,11.5-14.7,15.1c-12.2,7.8-27.1,10.7-41.1,8.2c-7-1.3-13.8-3.8-19.9-7.7c-2.9-1.8-5.6-4-8.1-6.5
					c-2.5-2.6-4.4-5.5-5.1-9.2c-0.6-3.7,0.3-7.7,1.6-11.1c1.2-3,2.8-5.8,4.6-8.5c3.5-5.1,8-9.4,12.9-12.9
					c10.6-7.5,23.4-11.6,36.2-11.5c1.6,0,3.2,0.1,4.8,0.2c1,0.1,1.8-0.9,1.8-1.8C232.2,169.3,231.3,168.7,230.4,168.5L230.4,168.5z"
					/>
			</g>
		</g>
		<g>
			<g>
				
					<linearGradient id="SVGID_5_" gradientUnits="userSpaceOnUse" x1="245.5348" y1="273.5643" x2="257.5836" y2="273.5643" gradientTransform="matrix(1 0 0 1 0 -61.7796)">
					<stop  offset="0" style="stop-color:#FFF33B"/>
					<stop  offset="5.950000e-02" style="stop-color:#FFE029"/>
					<stop  offset="0.1303" style="stop-color:#FFD217"/>
					<stop  offset="0.2032" style="stop-color:#FEC90E"/>
					<stop  offset="0.2809" style="stop-color:#FDC70C"/>
					<stop  offset="0.6685" style="stop-color:#F3903F"/>
					<stop  offset="0.8876" style="stop-color:#ED683C"/>
					<stop  offset="1" style="stop-color:#E93E3A"/>
				</linearGradient>
				<path class="st5" d="M257.1,196.1c-5.5,1-9.8,5.2-11.7,10.5c-1.7,4.7-1.7,10.3,0.5,14.9c1.2,2.5,3.2,4.6,5.6,5.8
					c0.8,0.4,1.9,0.2,2.4-0.7c0.4-0.8,0.2-2.1-0.6-2.5c-4.5-2.2-6-7.4-5.4-12.3c0.4-3,1.4-5.9,3.3-8.1c1.8-2.1,4.3-3.5,6.9-3.9
					c0.9-0.1,1.5-1.4,1.3-2.3C259,196.3,258,195.9,257.1,196.1L257.1,196.1z"/>
			</g>
		</g>
		<g>
			<g>
				
					<linearGradient id="SVGID_6_" gradientUnits="userSpaceOnUse" x1="236.4239" y1="285.4191" x2="245.7225" y2="285.4191" gradientTransform="matrix(1 0 0 1 0 -61.7796)">
					<stop  offset="0" style="stop-color:#FFF33B"/>
					<stop  offset="5.950000e-02" style="stop-color:#FFE029"/>
					<stop  offset="0.1303" style="stop-color:#FFD217"/>
					<stop  offset="0.2032" style="stop-color:#FEC90E"/>
					<stop  offset="0.2809" style="stop-color:#FDC70C"/>
					<stop  offset="0.6685" style="stop-color:#F3903F"/>
					<stop  offset="0.8876" style="stop-color:#ED683C"/>
					<stop  offset="1" style="stop-color:#E93E3A"/>
				</linearGradient>
				<path class="st6" d="M245.2,210.7c-4.6,2-8.8,6.1-9.8,11.4c-1.1,5.6,1.5,11,5.8,14.3c0.8,0.6,2,0.1,2.4-0.7
					c0.5-0.9,0.1-1.9-0.6-2.5c-3.1-2.3-5.1-6.4-4.1-10.3c0.8-3.9,3.9-7,7.4-8.6c0.8-0.4,1.5-1.3,1.3-2.3
					C247,211.2,246,210.4,245.2,210.7L245.2,210.7z"/>
			</g>
		</g>
		<g>
			<g>
				
					<linearGradient id="SVGID_7_" gradientUnits="userSpaceOnUse" x1="215.1558" y1="266.5193" x2="233.2343" y2="266.5193" gradientTransform="matrix(1 0 0 1 0 -61.7796)">
					<stop  offset="0" style="stop-color:#FFF33B"/>
					<stop  offset="5.950000e-02" style="stop-color:#FFE029"/>
					<stop  offset="0.1303" style="stop-color:#FFD217"/>
					<stop  offset="0.2032" style="stop-color:#FEC90E"/>
					<stop  offset="0.2809" style="stop-color:#FDC70C"/>
					<stop  offset="0.6685" style="stop-color:#F3903F"/>
					<stop  offset="0.8876" style="stop-color:#ED683C"/>
					<stop  offset="1" style="stop-color:#E93E3A"/>
				</linearGradient>
				<path class="st7" d="M216.2,207.7c3-1.4,6.2-3.1,9.5-3.4c1.9-0.1,5.5,0.4,5.4,2.9c-0.1,2.4,3.4,2.4,3.5,0
					c0.2-4.3-4.2-6.6-7.6-6.7c-4.4-0.1-8.6,2.1-12.6,4c-0.8,0.4-1.1,1.7-0.6,2.5C214.3,208,215.3,208.1,216.2,207.7L216.2,207.7z"/>
			</g>
		</g>
		<g>
			<g>
				
					<linearGradient id="SVGID_8_" gradientUnits="userSpaceOnUse" x1="292.2618" y1="242.1727" x2="299.1881" y2="242.1727" gradientTransform="matrix(1 0 0 1 0 -61.7796)">
					<stop  offset="0" style="stop-color:#FFF33B"/>
					<stop  offset="5.950000e-02" style="stop-color:#FFE029"/>
					<stop  offset="0.1303" style="stop-color:#FFD217"/>
					<stop  offset="0.2032" style="stop-color:#FEC90E"/>
					<stop  offset="0.2809" style="stop-color:#FDC70C"/>
					<stop  offset="0.6685" style="stop-color:#F3903F"/>
					<stop  offset="0.8876" style="stop-color:#ED683C"/>
					<stop  offset="1" style="stop-color:#E93E3A"/>
				</linearGradient>
				<path class="st8" d="M292.2,184.9c3.9,0.1,8-2.8,8.4-7.1c0.1-1-0.8-1.9-1.8-1.8c-1.1,0.1-1.7,0.8-1.8,1.8c0,0.2-0.1,0.4,0-0.1
					c0,0.1,0,0.1-0.1,0.3c0,0.1-0.1,0.3-0.1,0.4c0,0.1-0.1,0.1-0.1,0.2c0.1-0.5,0.1-0.2,0-0.1c-0.1,0.1-0.1,0.3-0.3,0.4
					c-0.1,0.1-0.1,0.1-0.1,0.2c0,0.1-0.3,0.4-0.1,0.1s0,0,0,0c-0.1,0.1-0.1,0.1-0.2,0.2c-0.1,0.1-0.3,0.3-0.4,0.4
					c-0.1,0.1-0.1,0.1-0.1,0.1c-0.3,0.3,0.2-0.1,0.1-0.1c-0.3,0.2-0.6,0.4-0.9,0.6c-0.1,0.1-0.4,0.1-0.5,0.2c0.4-0.3,0.2-0.1,0.1,0
					c-0.1,0-0.2,0.1-0.3,0.1c-0.4,0.1-0.7,0.2-1.1,0.3s0.4-0.1,0.1,0c-0.1,0-0.2,0-0.3,0c-0.2,0-0.4,0-0.6,0c-0.9,0-1.8,0.9-1.8,1.8
					C290.6,184.1,291.3,184.9,292.2,184.9L292.2,184.9z"/>
			</g>
		</g>
		<g>
			<g>
				
					<linearGradient id="SVGID_9_" gradientUnits="userSpaceOnUse" x1="277.6969" y1="252.045" x2="286.6514" y2="252.045" gradientTransform="matrix(1 0 0 1 0 -61.7796)">
					<stop  offset="0" style="stop-color:#FFF33B"/>
					<stop  offset="5.950000e-02" style="stop-color:#FFE029"/>
					<stop  offset="0.1303" style="stop-color:#FFD217"/>
					<stop  offset="0.2032" style="stop-color:#FEC90E"/>
					<stop  offset="0.2809" style="stop-color:#FDC70C"/>
					<stop  offset="0.6685" style="stop-color:#F3903F"/>
					<stop  offset="0.8876" style="stop-color:#ED683C"/>
					<stop  offset="1" style="stop-color:#E93E3A"/>
				</linearGradient>
				<path class="st9" d="M284.4,187.7c0.1,0.1,0.1,0.4,0.1,0.6c0-0.3-0.1-0.4,0-0.2c0,0.1,0,0.1,0,0.1c0,0.1,0,0.1,0,0.2
					c0.1-0.3,0.1-0.4,0-0.2c0,0.1,0,0.1,0,0.1s-0.1,0.1-0.1,0.3c-0.1,0.2,0.2-0.4,0-0.1c-0.1,0.1-0.1,0.1-0.1,0.3
					c-0.1,0.1-0.1,0.1-0.1,0.3c-0.1,0.3,0.1-0.1,0,0c-0.1,0.1-0.3,0.3-0.4,0.4c-0.1,0.1-0.1,0.1-0.2,0.2c-0.4,0.3,0.3-0.2-0.1,0
					c-0.2,0.1-0.4,0.2-0.6,0.4c-0.1,0.1-0.2,0.1-0.3,0.1c-0.1,0.1-0.4,0.2-0.1,0c-0.2,0.1-0.5,0.1-0.7,0.2c-0.5,0.1-0.9,0.3-1.4,0.4
					c-0.2,0.1-0.5,0.1-0.7,0.1c0.4-0.1-0.1,0-0.1,0c-0.1,0-0.3,0-0.4,0.1c-0.5,0.1-1.1,0.1-1.5,0.1c-0.9,0.1-1.8,0.8-1.8,1.8
					c0.1,1,0.8,1.9,1.8,1.8c2.5-0.2,5.1-0.4,7.3-1.8c2-1.3,3.7-3.9,2.8-6.4c-0.4-0.9-1.2-1.6-2.2-1.3
					C284.8,185.8,284.1,186.8,284.4,187.7L284.4,187.7z"/>
			</g>
		</g>
		<g>
			<g>
				
					<linearGradient id="SVGID_10_" gradientUnits="userSpaceOnUse" x1="293.1674" y1="253.6015" x2="299.5614" y2="253.6015" gradientTransform="matrix(1 0 0 1 0 -61.7796)">
					<stop  offset="0" style="stop-color:#FFF33B"/>
					<stop  offset="5.950000e-02" style="stop-color:#FFE029"/>
					<stop  offset="0.1303" style="stop-color:#FFD217"/>
					<stop  offset="0.2032" style="stop-color:#FEC90E"/>
					<stop  offset="0.2809" style="stop-color:#FDC70C"/>
					<stop  offset="0.6685" style="stop-color:#F3903F"/>
					<stop  offset="0.8876" style="stop-color:#ED683C"/>
					<stop  offset="1" style="stop-color:#E93E3A"/>
				</linearGradient>
				<path class="st10" d="M293.2,196.2c2,0.3,4.1-0.6,5.6-1.9c0.6-0.6,1.3-1.3,1.6-2.2c0.2-0.4,0.4-0.9,0.4-1.4c0.1-0.7,0.1-1.3,0-2
					c-0.1-0.4-0.5-0.9-0.8-1.1c-0.4-0.2-0.9-0.4-1.3-0.1c-0.4,0.2-0.8,0.4-1.1,0.8c-0.2,0.4-0.3,0.9-0.1,1.4c0,0.1,0,0.1,0,0.1
					c0-0.1-0.1-0.3-0.1-0.5c0,0.3,0,0.6,0,0.8c0-0.1,0.1-0.3,0.1-0.5c0,0.2-0.1,0.4-0.1,0.7c-0.1,0.1-0.1,0.3,0.1-0.1
					c0,0.1-0.1,0.1-0.1,0.1c-0.1,0.1-0.1,0.2-0.1,0.3c-0.1,0.1-0.1,0.2-0.2,0.4c0,0.1-0.1,0.2,0,0c0.2-0.3,0-0.1,0,0
					c-0.1,0.2-0.4,0.4-0.6,0.6c-0.1,0-0.1,0.1-0.1,0.1c-0.1,0.1,0.4-0.3,0.1-0.1c-0.1,0.1-0.2,0.1-0.4,0.2c-0.2,0.1-0.5,0.3-0.7,0.4
					c-0.1,0-0.1,0.1-0.1,0.1c0.5-0.2,0.3-0.1,0.1-0.1s-0.3,0.1-0.4,0.1c-0.3,0.1-0.6,0.1-0.8,0.2c0.1,0,0.3-0.1,0.5-0.1
					c-0.5,0.1-0.9,0.1-1.4,0c-0.4-0.1-1,0.2-1.3,0.5c-0.3,0.3-0.6,0.8-0.5,1.3c0,0.4,0.1,1,0.5,1.3
					C292.3,196.1,292.7,196.2,293.2,196.2L293.2,196.2z"/>
			</g>
		</g>
		<g>
			<g>
				
					<linearGradient id="SVGID_11_" gradientUnits="userSpaceOnUse" x1="270.0335" y1="247.4858" x2="306.8257" y2="247.4858" gradientTransform="matrix(1 0 0 1 0 -61.7796)">
					<stop  offset="0" style="stop-color:#FFF33B"/>
					<stop  offset="5.950000e-02" style="stop-color:#FFE029"/>
					<stop  offset="0.1303" style="stop-color:#FFD217"/>
					<stop  offset="0.2032" style="stop-color:#FEC90E"/>
					<stop  offset="0.2809" style="stop-color:#FDC70C"/>
					<stop  offset="0.6685" style="stop-color:#F3903F"/>
					<stop  offset="0.8876" style="stop-color:#ED683C"/>
					<stop  offset="1" style="stop-color:#E93E3A"/>
				</linearGradient>
				<path class="st11" d="M269.1,191.1c3.6,3.9,7.9,7.1,12.6,9.4c4.5,2.1,9.4,3.9,14.5,3.6c2.3-0.1,4.6-0.7,6.6-2
					c2.2-1.6,3.6-3.8,4.4-6.5c1.4-4.6,1.4-9.7,0.1-14.3c-1.5-5.6-4.9-10.3-9.3-13.8c-0.8-0.6-2-0.1-2.4,0.7c-0.6,1-0.1,1.9,0.6,2.5
					c6.3,5.2,9.9,14,8,22.3c-0.5,2.1-1.1,4.2-2.7,5.6c-1.3,1.1-3,1.6-4.7,1.8c-4.3,0.4-8.6-0.9-12.5-2.7c-4.8-2.1-9.1-5.2-12.8-9.2
					C270,186.8,267.5,189.4,269.1,191.1L269.1,191.1z"/>
			</g>
		</g>
		<g>
			<g>
				
					<linearGradient id="SVGID_12_" gradientUnits="userSpaceOnUse" x1="271.2311" y1="237.7395" x2="280.0916" y2="237.7395" gradientTransform="matrix(1 0 0 1 0 -61.7796)">
					<stop  offset="0" style="stop-color:#FFF33B"/>
					<stop  offset="5.950000e-02" style="stop-color:#FFE029"/>
					<stop  offset="0.1303" style="stop-color:#FFD217"/>
					<stop  offset="0.2032" style="stop-color:#FEC90E"/>
					<stop  offset="0.2809" style="stop-color:#FDC70C"/>
					<stop  offset="0.6685" style="stop-color:#F3903F"/>
					<stop  offset="0.8876" style="stop-color:#ED683C"/>
					<stop  offset="1" style="stop-color:#E93E3A"/>
				</linearGradient>
				<path class="st12" d="M280.4,171.3c-1.8-0.4-3.6-0.7-5.5-0.4c-1.5,0.2-3,1-4,2.1c-1.1,1.4-1.4,3.4-0.5,5
					c0.8,1.5,2.4,2.4,3.9,2.8c2,0.4,4.1,0.1,6.2-0.2c0.9-0.1,1.5-1.4,1.3-2.3c-0.4-1-1.2-1.5-2.2-1.3c-0.4,0.1-0.6,0.1-1,0.1
					c-0.1,0-0.5,0.1-0.1,0c-0.2,0-0.4,0.1-0.6,0.1c-0.6,0.1-1.3,0.1-2,0.1c-0.1,0-0.1,0-0.2,0c0,0-0.3-0.1-0.1,0
					c0.2,0.1-0.1,0-0.1,0c-0.1,0-0.1,0-0.2-0.1c-0.1,0-0.8-0.3-0.8-0.3c0-0.1,0.3,0.1,0.1,0c-0.1,0-0.1-0.1-0.1-0.1
					c-0.1-0.1-0.2-0.1-0.4-0.2c0,0-0.1-0.1-0.1-0.1c0,0,0.3,0.2,0.1,0.1c-0.1-0.1-0.2-0.2-0.3-0.3c-0.1-0.1-0.1-0.1-0.1-0.1
					c-0.1-0.1,0.1,0.1,0.1,0.1c0-0.1-0.1-0.2-0.2-0.3c-0.1-0.3,0.1,0.3,0,0c0-0.1-0.1-0.5-0.1-0.2c0.1,0.4,0-0.2,0-0.2
					s-0.1,0.4,0,0.2c0-0.1,0-0.1,0.1-0.1c0.1-0.3-0.1,0.3,0,0c0.1-0.1,0.3-0.4,0.1-0.2c-0.1,0.2,0.1-0.1,0.1-0.1
					c0.1-0.1,0.1-0.1,0.3-0.2c0.1-0.1-0.1,0.1-0.1,0.1l0.1-0.1c0.1-0.1,0.3-0.1,0.4-0.2c0.1-0.1,0.5-0.2,0.3-0.1
					c-0.2,0.1,0.1-0.1,0.2-0.1c0.3-0.1,0.6-0.1,0.8-0.2c0,0,0.3-0.1,0.1,0c-0.2,0.1,0.1,0,0.1,0c0.2,0,0.4,0,0.6,0
					c0.4,0,0.8,0,1.1,0.1c0.1,0,0.2,0,0.4,0.1c0.1,0,0.2,0,0,0c0.2,0,0.4,0.1,0.6,0.1c0.4,0.1,0.8,0.1,1.2,0.2
					c0.9,0.1,2-0.3,2.2-1.3C281.9,172.7,281.4,171.6,280.4,171.3L280.4,171.3z"/>
			</g>
		</g>
		<g>
			<g>
				
					<linearGradient id="SVGID_13_" gradientUnits="userSpaceOnUse" x1="279.7385" y1="234.257" x2="287.0514" y2="234.257" gradientTransform="matrix(1 0 0 1 0 -61.7796)">
					<stop  offset="0" style="stop-color:#FFF33B"/>
					<stop  offset="5.950000e-02" style="stop-color:#FFE029"/>
					<stop  offset="0.1303" style="stop-color:#FFD217"/>
					<stop  offset="0.2032" style="stop-color:#FEC90E"/>
					<stop  offset="0.2809" style="stop-color:#FDC70C"/>
					<stop  offset="0.6685" style="stop-color:#F3903F"/>
					<stop  offset="0.8876" style="stop-color:#ED683C"/>
					<stop  offset="1" style="stop-color:#E93E3A"/>
				</linearGradient>
				<path class="st13" d="M281.9,172.7C281.9,172.5,281.9,172.5,281.9,172.7c0-0.1,0-0.1,0-0.3c0-0.2,0-0.4,0-0.6
					c0,0.4,0.1-0.1,0.1-0.3c0.1-0.2,0.1-0.4,0.2-0.6c-0.1,0.4,0.1-0.2,0.1-0.3c0.1-0.1,0.2-0.4,0.4-0.5c-0.1,0.3,0.1-0.1,0.1-0.1
					c0.1-0.1,0.3-0.3,0.4-0.4c0.1-0.1,0.1-0.1-0.1,0c0.1-0.1,0.1-0.1,0.2-0.1c0.1-0.1,0.4-0.2,0.5-0.3c-0.4,0.2,0.1-0.1,0.3-0.1
					c0.1-0.1,0.6-0.1,0.2-0.1c0.1,0,0.4-0.1,0.4,0c-0.3-0.1-0.3-0.1-0.1,0c0.2,0.1,0.1,0.1-0.1-0.1c0.1,0.1,0.1,0.1,0.2,0.1
					c-0.2-0.1-0.2-0.1-0.1,0c-0.1-0.1-0.1-0.1,0,0.1c-0.1-0.1-0.1-0.1,0,0c0.1,0.2,0.1,0.4,0.1,0.6c0,0.1,0.1,0.7,0.1,0.3
					c0.1,0.4,0.1,0.7,0.1,1c0,0.2,0,0.4,0,0.6c0,0.1,0,0.2,0,0.3c0-0.2,0-0.2,0-0.1c-0.1,0.4-0.1,0.8-0.3,1.2
					c-0.1,0.2-0.1,0.4-0.2,0.6c-0.1,0.4,0.1-0.3-0.1,0.1c-0.1,0.4-0.4,0.7-0.6,1.1c-0.1,0.1-0.2,0.4-0.4,0.5
					c-0.1,0.1-0.1,0.1-0.2,0.3c0.1-0.1,0.1-0.1,0,0c-0.3,0.3-0.6,0.7-0.8,1c-0.7,0.7-0.7,1.9,0,2.6s1.8,0.7,2.5,0
					c2.4-2.4,3.9-6,3.5-9.5c-0.1-1-0.3-2.1-0.8-2.9c-0.6-1-1.6-1.6-2.7-1.6c-1.8-0.2-3.5,0.8-4.6,2.1c-1.5,1.8-2.1,3.9-1.7,6.2
					c0.1,1,1.3,1.6,2.2,1.3C281.6,174.7,282,173.8,281.9,172.7L281.9,172.7z"/>
			</g>
		</g>
		<g>
			<g>
				
					<linearGradient id="SVGID_14_" gradientUnits="userSpaceOnUse" x1="281.8637" y1="240.5114" x2="283.6803" y2="240.5114" gradientTransform="matrix(1 0 0 1 0 -61.7796)">
					<stop  offset="0" style="stop-color:#FFF33B"/>
					<stop  offset="5.950000e-02" style="stop-color:#FFE029"/>
					<stop  offset="0.1303" style="stop-color:#FFD217"/>
					<stop  offset="0.2032" style="stop-color:#FEC90E"/>
					<stop  offset="0.2809" style="stop-color:#FDC70C"/>
					<stop  offset="0.6685" style="stop-color:#F3903F"/>
					<stop  offset="0.8876" style="stop-color:#ED683C"/>
					<stop  offset="1" style="stop-color:#E93E3A"/>
				</linearGradient>
				<path class="st14" d="M281.9,180.7c0.6-0.1,1.2-0.1,1.8-0.1c0.2,0,0.5-0.1,0.7-0.1s0.4-0.2,0.6-0.4s0.3-0.4,0.4-0.6
					c0.1-0.2,0.1-0.4,0.1-0.7c0-0.1-0.1-0.3-0.1-0.5c-0.1-0.3-0.2-0.6-0.4-0.8c-0.1-0.1-0.2-0.2-0.4-0.3c-0.3-0.1-0.6-0.2-0.9-0.2
					c-0.6,0.1-1.2,0.1-1.8,0.1c-0.2,0-0.5,0.1-0.7,0.1c-0.2,0.1-0.4,0.2-0.6,0.4c-0.1,0.1-0.3,0.4-0.4,0.6c-0.1,0.2-0.1,0.4-0.1,0.7
					c0,0.1,0.1,0.3,0.1,0.5c0.1,0.3,0.2,0.6,0.4,0.8c0.1,0.1,0.2,0.2,0.4,0.3C281.3,180.6,281.6,180.7,281.9,180.7L281.9,180.7z"/>
			</g>
		</g>
		<g>
			<g>
				
					<linearGradient id="SVGID_15_" gradientUnits="userSpaceOnUse" x1="216.5382" y1="211.5458" x2="253.6715" y2="211.5458" gradientTransform="matrix(1 0 0 1 0 -61.7796)">
					<stop  offset="0" style="stop-color:#FFF33B"/>
					<stop  offset="5.950000e-02" style="stop-color:#FFE029"/>
					<stop  offset="0.1303" style="stop-color:#FFD217"/>
					<stop  offset="0.2032" style="stop-color:#FEC90E"/>
					<stop  offset="0.2809" style="stop-color:#FDC70C"/>
					<stop  offset="0.6685" style="stop-color:#F3903F"/>
					<stop  offset="0.8876" style="stop-color:#ED683C"/>
					<stop  offset="1" style="stop-color:#E93E3A"/>
				</linearGradient>
				<path class="st15" d="M215.2,135.7c0.7,3,3.4,5,5.5,6.9c2.4,2.1,4.8,4.1,7.4,6.1c5,4,10.1,7.8,15.3,11.2c3,2.1,6.1,4,9.2,5.9
					c2,1.2,3.7-2,1.8-3.2c-10.3-6.3-20.3-13.4-29.5-21.4c-1.3-1.1-2.5-2.1-3.8-3.3c-1.1-0.9-2.2-1.9-2.5-3.3
					C218.1,132.4,214.6,133.4,215.2,135.7L215.2,135.7z"/>
			</g>
		</g>
		<g>
			<g>
				
					<linearGradient id="SVGID_16_" gradientUnits="userSpaceOnUse" x1="259.3673" y1="194.7613" x2="275.8724" y2="194.7613" gradientTransform="matrix(1 0 0 1 0 -61.7796)">
					<stop  offset="0" style="stop-color:#FFF33B"/>
					<stop  offset="5.950000e-02" style="stop-color:#FFE029"/>
					<stop  offset="0.1303" style="stop-color:#FFD217"/>
					<stop  offset="0.2032" style="stop-color:#FEC90E"/>
					<stop  offset="0.2809" style="stop-color:#FDC70C"/>
					<stop  offset="0.6685" style="stop-color:#F3903F"/>
					<stop  offset="0.8876" style="stop-color:#ED683C"/>
					<stop  offset="1" style="stop-color:#E93E3A"/>
				</linearGradient>
				<path class="st16" d="M258.1,113c6.6,9.4,11.5,20,14.1,31.4c0.7,3.1,1.2,6.2,1.5,9.4c0.1,1,0.7,1.8,1.8,1.8
					c0.8,0,1.8-0.8,1.8-1.8c-1.3-12-4.9-23.6-10.7-34c-1.7-3-3.5-5.8-5.4-8.6c-0.6-0.8-1.5-1.2-2.4-0.7
					C258,111,257.6,112.2,258.1,113L258.1,113z"/>
			</g>
		</g>
		<g>
			<g>
				
					<linearGradient id="SVGID_17_" gradientUnits="userSpaceOnUse" x1="258.5284" y1="196.7329" x2="274.8565" y2="196.7329" gradientTransform="matrix(1 0 0 1 0 -61.7796)">
					<stop  offset="0" style="stop-color:#FFF33B"/>
					<stop  offset="5.950000e-02" style="stop-color:#FFE029"/>
					<stop  offset="0.1303" style="stop-color:#FFD217"/>
					<stop  offset="0.2032" style="stop-color:#FEC90E"/>
					<stop  offset="0.2809" style="stop-color:#FDC70C"/>
					<stop  offset="0.6685" style="stop-color:#F3903F"/>
					<stop  offset="0.8876" style="stop-color:#ED683C"/>
					<stop  offset="1" style="stop-color:#E93E3A"/>
				</linearGradient>
				<path class="st17" d="M257.2,112.6c0.6,13.2,1.9,27,9.4,38.1c2,2.9,4.2,5.5,6.9,7.8c0.7,0.7,1.8,0.7,2.5,0c0.6-0.7,0.7-2,0-2.6
					c-4.3-3.7-7.6-8.4-10-13.7c-2.5-5.7-3.8-11.9-4.5-18.1c-0.4-3.8-0.6-7.7-0.8-11.5C260.5,110.2,257,110.2,257.2,112.6
					L257.2,112.6z"/>
			</g>
		</g>
		<g>
			<g>
				
					<linearGradient id="SVGID_18_" gradientUnits="userSpaceOnUse" x1="217.5332" y1="212.7112" x2="255.4888" y2="212.7112" gradientTransform="matrix(1 0 0 1 0 -61.7796)">
					<stop  offset="0" style="stop-color:#FFF33B"/>
					<stop  offset="5.950000e-02" style="stop-color:#FFE029"/>
					<stop  offset="0.1303" style="stop-color:#FFD217"/>
					<stop  offset="0.2032" style="stop-color:#FEC90E"/>
					<stop  offset="0.2809" style="stop-color:#FDC70C"/>
					<stop  offset="0.6685" style="stop-color:#F3903F"/>
					<stop  offset="0.8876" style="stop-color:#ED683C"/>
					<stop  offset="1" style="stop-color:#E93E3A"/>
				</linearGradient>
				<path class="st18" d="M217.6,136.8c3.2-0.1,6,1.6,8.8,3.3c2.7,1.8,5.4,3.7,8,5.7c4.9,3.9,9.4,8.4,13.4,13.4
					c2.2,2.7,4.2,5.5,6,8.6c1.2,2,4.3,0.1,3-1.8c-7.2-11.7-16.9-21.4-28.1-28.6c-3.4-2.1-6.9-4.2-11-4.1
					C215.3,133.1,215.3,136.8,217.6,136.8L217.6,136.8z"/>
			</g>
		</g>
		<g>
			<g>
				
					<linearGradient id="SVGID_19_" gradientUnits="userSpaceOnUse" x1="260.8645" y1="264.7328" x2="286.7094" y2="264.7328" gradientTransform="matrix(1 0 0 1 0 -61.7796)">
					<stop  offset="0" style="stop-color:#FFF33B"/>
					<stop  offset="5.950000e-02" style="stop-color:#FFE029"/>
					<stop  offset="0.1303" style="stop-color:#FFD217"/>
					<stop  offset="0.2032" style="stop-color:#FEC90E"/>
					<stop  offset="0.2809" style="stop-color:#FDC70C"/>
					<stop  offset="0.6685" style="stop-color:#F3903F"/>
					<stop  offset="0.8876" style="stop-color:#ED683C"/>
					<stop  offset="1" style="stop-color:#E93E3A"/>
				</linearGradient>
				<path class="st19" d="M259.8,199.1c-1.5,4.7,2.2,9.4,6.5,10.5c4.4,1.2,9.1-1.2,10.9-5.5c1-2.3,1-4.9-0.3-7
					c-0.9,0.7-1.8,1.5-2.7,2.2c1.9,2.1,4.1,4.3,6.9,4.7c2.5,0.4,5.5-0.4,6.8-2.8c1.1-2.1-1.9-3.9-3-1.8c-0.3,0.4-0.7,0.7-1.4,1
					c-0.7,0.2-1.5,0.2-2.2,0c-2-0.5-3.4-2.1-4.6-3.6c-1.3-1.6-3.8,0.4-2.7,2.2c0.4,0.7,0.6,1.3,0.6,2.1c0,0.7-0.3,1.5-0.7,2.1
					c-0.8,1.5-2.3,2.6-4,3c-1.8,0.4-3.7-0.2-5.1-1.5c-0.6-0.6-1.2-1.3-1.4-2.1c-0.4-0.9-0.4-1.6,0-2.5
					C263.9,197.8,260.5,196.8,259.8,199.1L259.8,199.1z"/>
			</g>
		</g>
	</g>
</g>
</svg>
