<?xml version="1.0" encoding="utf-8"?>
<!-- Generator: Adobe Illustrator 25.2.0, SVG Export Plug-In . SVG Version: 6.00 Build 0)  -->
<svg version="1.1" id="Layer_1" xmlns="http://www.w3.org/2000/svg" xmlns:xlink="http://www.w3.org/1999/xlink" x="0px" y="0px"
	 viewBox="0 0 595.28 841.89" style="enable-background:new 0 0 595.28 841.89;" xml:space="preserve">
<style type="text/css">
	.st0{fill:#FBB040;stroke:#F15A29;stroke-width:5;stroke-miterlimit:10;}
	.st1{fill:#8DC63F;stroke:url(#SVGID_1_);stroke-width:5;stroke-miterlimit:10;}
	.st2{fill:url(#SVGID_2_);}
	.st3{fill:url(#SVGID_3_);}
	.st4{fill:url(#SVGID_4_);}
	.st5{fill:url(#SVGID_5_);}
	.st6{fill:url(#SVGID_6_);}
	.st7{fill:url(#SVGID_7_);}
	.st8{fill:url(#SVGID_8_);}
	.st9{fill:url(#SVGID_9_);}
	.st10{fill:url(#SVGID_10_);}
	.st11{fill:url(#SVGID_11_);}
	.st12{fill:url(#SVGID_12_);}
	.st13{fill:url(#SVGID_13_);}
	.st14{fill:url(#SVGID_14_);}
	.st15{fill:url(#SVGID_15_);}
	.st16{fill:url(#SVGID_16_);}
	.st17{fill:url(#SVGID_17_);}
	.st18{fill:url(#SVGID_18_);}
	.st19{fill:url(#SVGID_19_);}
</style>
<g>
	<path class="st0" d="M180.74,141.41l0.21-0.01c3.49,3.45,7.11,6.76,10.86,9.93c13.64,10.46,26.49,15.31,38.55,14.58l5-0.31
		c4.59-0.28,13.09-2.53,25.53-6.76l0.42-0.03l0.22,0.18l0.01,0.2c-0.76,1.33-1.71,3.9-2.88,7.7c-0.77,2.23-3.21,4.49-7.33,6.79
		c-15.88,9.52-23.48,19.69-22.82,30.51c0.3,4.97,1.38,9.97,3.22,15c-3.85,7.13-6.06,11-6.61,11.59l-3.75,0.23
		c-0.38,0.02-1.99-2.32-4.82-7.03c-2.03-2.95-5.59-6.51-10.7-10.68c-5.56-3.69-9.8-5.69-12.71-6.01l-4.59,0.28
		c-2.3-0.59-4.3-1.29-5.99-2.11c1.12-2.84,3.86-5.83,8.24-8.97c1.73-1.39,3.08-2.12,4.05-2.18c5.77-0.35,13.28,2.72,22.53,9.22
		l0.21-0.01c1.05-3.33,3.49-7.85,7.33-13.57c2.35-3.11,6.13-7.59,11.31-13.42l-0.02-0.39l-0.42,0.03l-13.28,1.8
		c-8.34,0.51-16.47-1.3-24.39-5.44l0.01,0.2l1.25,3.39l-0.21,0.01l-6.2,1.32l-24.33-24.9l0.2-0.21l-0.01-0.2l-0.22-0.18
		C173.98,146.55,178.01,143.03,180.74,141.41z"/>
	<path class="st0" d="M250.59,78.42c5.24-3.08,8.41-4.17,9.5-3.26l0.16,0.13l4.45,10.84c5.44,11.12,12.1,19.98,19.97,26.57
		c3.32,2.78,6.65,4.93,10.01,6.47l8.59-10.59l2.02-2.41l7.37-3.95l0.64,0.53l1.77,1.76l-14.41,17.21c1.88,1.58,5.55,1.83,11.02,0.74
		l9.34-3.4l0.75,0.08l0.02,0.29l-2.56,3.06c-3.34,3.99-7.4,6.79-12.18,8.4c-4.93,0.39-9.04,0.13-12.35-0.77l-10.23,12.22
		c0.33,2.83,0.41,4.36,0.23,4.57l-8.78,3.05l0.13-0.16l-0.29,0.03l-0.16-0.13l-25.14-70.84l-0.02-0.29L250.59,78.42z M274.68,118.83
		l7.11,16.08l6.6-7.88l-13.44-8.52L274.68,118.83z"/>
	<path class="st0" d="M319.72,39.96c9.07,1.16,22.9,7,41.47,17.51c7.47,4.73,14.76,10.32,21.88,16.78
		c2.92,2.8,6.34,6.85,10.26,12.14c3.87,6.2,5.98,11.2,6.35,14.99l0.17,0.22l-0.35,2.71c-0.2,1.55-1.34,3.31-3.43,5.27
		c-2.37,1.6-5.61,2.83-9.72,3.68c-6.69,0.98-14.1,1.48-22.24,1.49c-9.93-0.38-14.93-0.24-15.02,0.44c-0.8,1.34-2.31,1.87-4.53,1.59
		l-3.71-0.28l0.02-0.19c-0.18-0.61-0.4-0.97-0.65-1.07l-4.48-0.38l-2.99-5.9l0.05-0.39c4.77-1.36,7.23-2.16,7.4-2.4l0.02-0.19
		c0.79-6.17,3.85-14.18,9.18-24.03c0.57-1.34,0.91-2.48,1.03-3.41l0.27-2.13c0.67-5.23-6.52-13.7-21.56-25.4
		c-7.41-5.67-11.34-8.8-11.8-9.38L317.03,41l0.05-0.39C317.39,39.99,318.27,39.78,319.72,39.96z M357.49,64.88l-0.02,0.19
		c2.66,3.59,4.13,7.45,4.42,11.59c0.16,1.83,0.15,3.46-0.04,4.92l-0.72,5.62c-0.69,4.34-3.44,10.95-8.24,19.82l0.58,0.07
		c7.49,0.96,17.45-0.46,29.88-4.25c1.65-0.61,2.52-1.22,2.6-1.83c1.02-7.94-5.39-17.36-19.23-28.25
		C364.06,70.21,360.99,67.59,357.49,64.88z"/>
	<path class="st0" d="M447.21,96.76c5.03,3.79,7.32,6.36,6.88,7.7l-0.06,0.2l-8.62,8c-8.49,9.02-14.34,18.37-17.54,28.05
		c-1.35,4.08-2.09,7.95-2.23,11.63l13.53,4.25l3.11,1.03l6.7,5.47l-0.26,0.78l-0.98,2.28l-22.17-7.32
		c-0.76,2.32,0.45,5.83,3.64,10.53l6.94,7.5l0.22,0.72l-0.27,0.13l-3.94-1.3c-5.14-1.7-9.43-4.49-12.86-8.37
		c-2.32-4.45-3.7-8.38-4.15-11.78l-15.74-5.2c-2.58,1.32-4.01,1.93-4.28,1.84l-6.39-7.1l0.21,0.07l-0.14-0.26l0.06-0.2l57.86-48.58
		l0.27-0.13L447.21,96.76z M418.05,133.55l-12.58,12.34l10.15,3.35l2.84-15.55L418.05,133.55z"/>
	<path class="st0" d="M251.36,357.87l-0.66,1.17c-1.4,2.47-5.16,3.08-11.29,1.8l-0.11,0.2c5.82,3.55,11.64,9.24,17.47,17.09
		c5.54,10.36,6.69,18.4,3.46,24.12l-0.69,1.22c-1.24,2.2-2.84,2.95-4.81,2.25c-8.48-1.03-15.65-3.2-21.52-6.51
		c-2.85-1.61-6.69-4.4-11.53-8.38l-0.8,0.49l-1.49,2.64c-0.17,0.3-0.46,0.34-0.87,0.11l-8.52-9.49l0.14-0.25l2.7-3.77l-12.79-14.38
		c-0.66-1.85-0.85-3.12-0.58-3.81c0.67-1.19,2.84-1.32,6.5-0.42c2.89,2.08,6.6,5.11,11.13,9.09c2.67-11.04,3.84-19.54,3.52-25.48
		c0-12.01-0.13-19.3-0.39-21.86c-3.16-3.12-4.74-5.77-4.74-7.96c0.03-1.63,0.77-4.03,2.2-7.2l-0.9-5.2l0.26-0.46
		c3.8,2.19,13.62,16.99,29.46,44.41L251.36,357.87z M230.03,334.25c0.6,11.42,1.17,17.27,1.7,17.57l1.06,0.6
		c1.76,0.99,4.27,1.04,7.52,0.15l0.14-0.25L230.03,334.25z M229.08,363.72c0.45,3.38,0.44,6.81-0.05,10.29
		c-0.75,3.33-1.51,5.94-2.27,7.83l3.44,2.54c13.09,6.58,19.72,9.69,19.92,9.35l0.4-0.71c0.11-0.61-1.15-3.82-3.79-9.64
		c-1.54-2.97-4.13-6.19-7.78-9.68C236.62,372.4,233.33,369.07,229.08,363.72z"/>
	<path class="st0" d="M322.9,346.79c0.66,1.07,0.75,3.07,0.26,6.02l-0.26,1.57c-1.9,11.49-9.49,24.56-22.79,39.22
		c-4.65,4.84-9.98,9.64-16,14.4c8.06-2.88,17.29-3.46,27.7-1.74c4.3,0.71,9.51,2.09,15.62,4.15l-0.01-6.45
		c7.09-1.71,11.06-2.58,11.9-2.61l5.14,14.41l-4.41,3.89c-2.87,2.35-4.6,3.47-5.22,3.37c-9.57-3.56-18.18-5.97-25.86-7.24
		l-3.66-0.61c-13.2-2.18-23.97-1.65-32.33,1.59l-2.37,1.35l-5.1-3.85l0.2-0.14l-0.15-0.16c6.99-4.34,12.09-8.13,15.32-11.37
		c9.96-9.14,17.8-19.7,23.51-31.69c2.53-5.19,4.15-9.92,4.85-14.19c0.48-2.91,0.46-5.34-0.05-7.29c3.24-1.15,7.81-2.08,13.72-2.79
		L322.9,346.79z"/>
	<path class="st0" d="M393.93,335.94l0.07,0.19l0.47-0.4l4.24,0.17l0.07,0.19l0.26,5.66c7.14,7.56,14.84,14.32,23.11,20.27
		c2.79,2.04,7.69,4.69,14.7,7.95l8.3,3.73c-0.03,4.52-1.24,9.99-3.61,16.42l-0.47,0.4c-9.66-0.04-15.93,0.49-18.82,1.58
		c-11.66,2.2-21.47,4.8-29.42,7.8c-7.95,3-17.03,6.96-27.26,11.86c-0.73,0.28-2.84-0.33-6.32-1.82l-0.18,0.07l0.11-0.26l-0.26-0.12
		l-0.07-0.19l12.1-43.1l-0.07-0.19l-10.16-1.47l-0.07-0.19c0.55-1.31,3.25-5.95,8.1-13.91l10.3-3.67l2.38-0.9l0.15,0.39l-8.77,44.72
		l0.07,0.19L415.05,378l-0.07-0.19l-28.86-27.17L393.93,335.94z"/>
	<path class="st0" d="M407.1,304.97c4.7-1.01,7.94-2.83,9.75-5.47l0.29-0.43c0.14-0.15,3.86,0.16,11.15,0.93
		c8.3,0.76,17.85,1.09,28.67,0.99l8.88-0.83l0.31,0.22c-3.07,5.44-4.85,9.17-5.35,11.2l-36.53,1.38
		c5.13,7.42,9.89,12.62,14.26,15.62l0.47,0.32c2.99,2.05,6.11,2.78,9.35,2.21c2.94-0.36,7.85-3.7,14.72-10.02
		c0.86-1.26,3.72-3.07,8.57-5.44l0.25-0.03l0.16,0.11c2.08,1.91,3.01,3.03,2.78,3.37c-2.21,11.78-3.43,17.85-3.68,18.21l0.16,0.11
		l17.23-23.16l-0.16-0.11l-13.57-7.19l10.1-10.04c11.5,4.24,17.78,6.66,18.84,7.24l-0.1,0.14c-0.17,5.43-0.49,8.49-0.97,9.18
		c-7.28,5.91-13.84,13.14-19.69,21.69c-4.21,6.15-7.24,12.38-9.09,18.69c-4.62,2.42-7.81,3.93-9.58,4.54l-5.25-23.06
		c-4.33,3.56-9.22,5.87-14.67,6.92c-5.45,0.32-10.07-0.82-13.84-3.4l-2.36-1.62c-3.46-2.37-7.78-7.42-12.97-15.15
		c-3.18-5.21-6.01-10.63-8.5-16.28L407.1,304.97z"/>
	<g>
		
			<linearGradient id="SVGID_1_" gradientUnits="userSpaceOnUse" x1="303.9174" y1="218.4528" x2="303.9174" y2="218.4528" gradientTransform="matrix(0.9963 -0.0862 0.0862 0.9963 -20.1563 30.2872)">
			<stop  offset="0" style="stop-color:#FFF33B"/>
			<stop  offset="0.0595" style="stop-color:#FFE029"/>
			<stop  offset="0.1303" style="stop-color:#FFD217"/>
			<stop  offset="0.2032" style="stop-color:#FEC90E"/>
			<stop  offset="0.2809" style="stop-color:#FDC70C"/>
			<stop  offset="0.6685" style="stop-color:#F3903F"/>
			<stop  offset="0.8876" style="stop-color:#ED683C"/>
			<stop  offset="1" style="stop-color:#E93E3A"/>
		</linearGradient>
		<path class="st1" d="M301.47,221.71"/>
		<g>
			<g>
				<linearGradient id="SVGID_2_" gradientUnits="userSpaceOnUse" x1="285.1586" y1="218.2246" x2="384.8243" y2="218.2246">
					<stop  offset="0" style="stop-color:#FFF33B"/>
					<stop  offset="0.0595" style="stop-color:#FFE029"/>
					<stop  offset="0.1303" style="stop-color:#FFD217"/>
					<stop  offset="0.2032" style="stop-color:#FEC90E"/>
					<stop  offset="0.2809" style="stop-color:#FDC70C"/>
					<stop  offset="0.6685" style="stop-color:#F3903F"/>
					<stop  offset="0.8876" style="stop-color:#ED683C"/>
					<stop  offset="1" style="stop-color:#E93E3A"/>
				</linearGradient>
				<path class="st2" d="M377.28,233.61c-4.5-13.48-15-23.63-26-32.09c-12.41-9.55-25.93-17.83-39.55-25.52
					c-8.06-4.55-16.27-8.82-24.61-12.84c-1.78-0.86-3.61,0.19-3.76,2.16c-1.54,19.53,6.87,38.13,18.9,53.07
					c13.07,16.22,30.67,28.27,48.69,38.39c10.57,5.94,21.47,11.27,32.4,16.5c1.22,0.58,2.7,0.34,3.42-0.9
					c0.64-1.09,0.33-2.83-0.9-3.42c-18.84-9.02-37.73-18.34-54.73-30.59c-15.67-11.31-29.78-25.61-37.6-43.53
					c-4.05-9.27-5.99-19.41-5.19-29.51c-1.25,0.72-2.51,1.44-3.76,2.16c14.35,6.92,28.33,14.61,41.82,23.1
					c12.19,7.66,24.7,15.69,34.62,26.24c4.92,5.24,9.13,11.26,11.42,18.12C373.47,237.98,378.3,236.68,377.28,233.61L377.28,233.61z
					"/>
			</g>
		</g>
		<g>
			<g>
				<linearGradient id="SVGID_3_" gradientUnits="userSpaceOnUse" x1="352.2479" y1="190.294" x2="422.7591" y2="190.294">
					<stop  offset="0" style="stop-color:#FFF33B"/>
					<stop  offset="0.0595" style="stop-color:#FFE029"/>
					<stop  offset="0.1303" style="stop-color:#FFD217"/>
					<stop  offset="0.2032" style="stop-color:#FEC90E"/>
					<stop  offset="0.2809" style="stop-color:#FDC70C"/>
					<stop  offset="0.6685" style="stop-color:#F3903F"/>
					<stop  offset="0.8876" style="stop-color:#ED683C"/>
					<stop  offset="1" style="stop-color:#E93E3A"/>
				</linearGradient>
				<path class="st3" d="M363.97,208.67c-6.23-17.85-9.21-36.7-8.66-55.61c0.16-5.39,0.61-10.76,1.31-16.1
					c-1.05,0.8-2.11,1.61-3.16,2.41c14.28,5.26,26.04,15.71,34.52,28.19c4.88,7.17,8.8,14.93,12.36,22.83
					c3.66,8.11,7.14,16.33,10.44,24.6c3.8,9.53,7.16,19.26,9.08,29.36c0.25,1.33,1.85,2.08,3.08,1.75c1.39-0.38,2-1.74,1.75-3.08
					c-1.76-9.23-4.71-18.17-8.12-26.92c-3.35-8.61-6.99-17.11-10.71-25.56c-6.79-15.43-14.99-30.53-27.73-41.89
					c-6.86-6.11-14.7-10.92-23.33-14.1c-1.7-0.63-2.97,0.96-3.16,2.41c-2.53,19.08-1.53,38.56,2.91,57.29
					c1.26,5.33,2.81,10.58,4.62,15.75c0.44,1.27,1.71,2.12,3.08,1.75C363.46,211.41,364.42,209.95,363.97,208.67L363.97,208.67z"/>
			</g>
		</g>
		<g>
			<g>
				<linearGradient id="SVGID_4_" gradientUnits="userSpaceOnUse" x1="240.3247" y1="292.9175" x2="375.6691" y2="292.9175">
					<stop  offset="0" style="stop-color:#FFF33B"/>
					<stop  offset="0.0595" style="stop-color:#FFE029"/>
					<stop  offset="0.1303" style="stop-color:#FFD217"/>
					<stop  offset="0.2032" style="stop-color:#FEC90E"/>
					<stop  offset="0.2809" style="stop-color:#FDC70C"/>
					<stop  offset="0.6685" style="stop-color:#F3903F"/>
					<stop  offset="0.8876" style="stop-color:#ED683C"/>
					<stop  offset="1" style="stop-color:#E93E3A"/>
				</linearGradient>
				<path class="st4" d="M329.37,242.13c-19.63-1.66-39.86,3.26-56.78,13.29c-7.96,4.72-15.33,10.66-21.28,17.78
					c-6.52,7.8-12.16,17.45-12.91,27.78c-0.4,5.53,1.09,10.97,4.2,15.55c3.04,4.49,7.11,8.12,11.41,11.37
					c8.5,6.4,18.51,10.85,28.81,13.43c21.46,5.38,44.63,2.59,64.25-7.62c9.45-4.92,18.46-11.7,24.65-20.46
					c5.84-8.27,8.27-19.28,2.97-28.46c-1.23-2.13-2.85-4.05-4.73-5.63c-1.03-0.87-2.52-1.01-3.54,0c-0.89,0.89-1.04,2.66,0,3.54
					c7.06,5.95,7.71,15.63,3.69,23.55c-4.45,8.78-12.63,15.51-20.92,20.54c-17.35,10.51-38.64,14.54-58.63,11.09
					c-9.95-1.72-19.62-5.12-28.26-10.37c-4.13-2.51-8.03-5.42-11.46-8.83c-3.47-3.46-6.32-7.51-7.24-12.4
					c-0.95-5.05,0.37-10.37,2.29-15.03c1.68-4.07,3.99-7.92,6.57-11.47c4.99-6.85,11.42-12.68,18.44-17.39
					c15.12-10.13,33.39-15.69,51.6-15.57c2.29,0.02,4.58,0.13,6.86,0.32c1.35,0.11,2.5-1.23,2.5-2.5
					C331.87,243.18,330.72,242.24,329.37,242.13L329.37,242.13z"/>
			</g>
		</g>
		<g>
			<g>
				<linearGradient id="SVGID_5_" gradientUnits="userSpaceOnUse" x1="350.9482" y1="300.5679" x2="368.1176" y2="300.5679">
					<stop  offset="0" style="stop-color:#FFF33B"/>
					<stop  offset="0.0595" style="stop-color:#FFE029"/>
					<stop  offset="0.1303" style="stop-color:#FFD217"/>
					<stop  offset="0.2032" style="stop-color:#FEC90E"/>
					<stop  offset="0.2809" style="stop-color:#FDC70C"/>
					<stop  offset="0.6685" style="stop-color:#F3903F"/>
					<stop  offset="0.8876" style="stop-color:#ED683C"/>
					<stop  offset="1" style="stop-color:#E93E3A"/>
				</linearGradient>
				<path class="st5" d="M367.38,279.37c-7.76,1.29-13.95,6.95-16.7,14.19c-2.42,6.38-2.43,14.05,0.66,20.2
					c1.7,3.38,4.53,6.16,7.95,7.76c1.22,0.57,2.7,0.34,3.42-0.9c0.63-1.08,0.33-2.84-0.9-3.42c-6.42-3.01-8.45-10.04-7.7-16.66
					c0.45-4.01,1.95-8.05,4.71-11.05c2.63-2.86,6.06-4.67,9.89-5.31c1.33-0.22,2.08-1.87,1.75-3.08
					C370.06,279.7,368.71,279.14,367.38,279.37L367.38,279.37z"/>
			</g>
		</g>
		<g>
			<g>
				<linearGradient id="SVGID_6_" gradientUnits="userSpaceOnUse" x1="337.9653" y1="316.6769" x2="351.2157" y2="316.6769">
					<stop  offset="0" style="stop-color:#FFF33B"/>
					<stop  offset="0.0595" style="stop-color:#FFE029"/>
					<stop  offset="0.1303" style="stop-color:#FFD217"/>
					<stop  offset="0.2032" style="stop-color:#FEC90E"/>
					<stop  offset="0.2809" style="stop-color:#FDC70C"/>
					<stop  offset="0.6685" style="stop-color:#F3903F"/>
					<stop  offset="0.8876" style="stop-color:#ED683C"/>
					<stop  offset="1" style="stop-color:#E93E3A"/>
				</linearGradient>
				<path class="st6" d="M350.36,299.19c-6.59,2.74-12.53,8.16-14.01,15.41c-1.56,7.62,2.13,14.94,8.31,19.34
					c1.1,0.78,2.78,0.19,3.42-0.9c0.73-1.25,0.21-2.64-0.9-3.42c-4.37-3.11-7.17-8.65-5.94-14.03c1.21-5.28,5.53-9.54,10.45-11.59
					c1.25-0.52,2.14-1.66,1.75-3.08C353.12,299.76,351.62,298.67,350.36,299.19L350.36,299.19z"/>
			</g>
		</g>
		<g>
			<g>
				<linearGradient id="SVGID_7_" gradientUnits="userSpaceOnUse" x1="307.6585" y1="291.0674" x2="333.4201" y2="291.0674">
					<stop  offset="0" style="stop-color:#FFF33B"/>
					<stop  offset="0.0595" style="stop-color:#FFE029"/>
					<stop  offset="0.1303" style="stop-color:#FFD217"/>
					<stop  offset="0.2032" style="stop-color:#FEC90E"/>
					<stop  offset="0.2809" style="stop-color:#FDC70C"/>
					<stop  offset="0.6685" style="stop-color:#F3903F"/>
					<stop  offset="0.8876" style="stop-color:#ED683C"/>
					<stop  offset="1" style="stop-color:#E93E3A"/>
				</linearGradient>
				<path class="st7" d="M309.12,295.08c4.27-1.91,8.83-4.21,13.55-4.65c2.69-0.25,7.92,0.5,7.72,3.94c-0.19,3.21,4.81,3.2,5,0
					c0.33-5.78-5.99-8.88-10.93-9c-6.26-0.16-12.3,2.9-17.87,5.39c-1.23,0.55-1.53,2.34-0.9,3.42
					C306.45,295.45,307.89,295.63,309.12,295.08L309.12,295.08z"/>
			</g>
		</g>
		<g>
			<g>
				<linearGradient id="SVGID_8_" gradientUnits="userSpaceOnUse" x1="417.5337" y1="258.1475" x2="427.4036" y2="258.1475">
					<stop  offset="0" style="stop-color:#FFF33B"/>
					<stop  offset="0.0595" style="stop-color:#FFE029"/>
					<stop  offset="0.1303" style="stop-color:#FFD217"/>
					<stop  offset="0.2032" style="stop-color:#FEC90E"/>
					<stop  offset="0.2809" style="stop-color:#FDC70C"/>
					<stop  offset="0.6685" style="stop-color:#F3903F"/>
					<stop  offset="0.8876" style="stop-color:#ED683C"/>
					<stop  offset="1" style="stop-color:#E93E3A"/>
				</linearGradient>
				<path class="st8" d="M417.55,264.2c5.56,0.14,11.35-3.83,11.85-9.61c0.11-1.31-1.23-2.56-2.5-2.5c-1.45,0.07-2.38,1.1-2.5,2.5
					c-0.02,0.26-0.16,0.46,0.03-0.19c-0.03,0.11-0.04,0.24-0.07,0.35c-0.05,0.22-0.11,0.43-0.19,0.64c-0.03,0.1-0.08,0.19-0.11,0.28
					c0.23-0.72,0.14-0.34,0.05-0.15c-0.11,0.22-0.23,0.44-0.37,0.65c-0.06,0.09-0.11,0.18-0.17,0.26c-0.05,0.08-0.35,0.47-0.07,0.1
					c0.27-0.35,0.02-0.03-0.05,0.05c-0.08,0.1-0.17,0.19-0.26,0.29c-0.18,0.19-0.37,0.37-0.57,0.55c-0.08,0.07-0.17,0.15-0.25,0.22
					c-0.42,0.35,0.29-0.21,0.08-0.06c-0.41,0.29-0.82,0.56-1.27,0.8c-0.22,0.12-0.47,0.2-0.68,0.33c0.59-0.36,0.28-0.12,0.08-0.04
					c-0.13,0.05-0.26,0.1-0.39,0.14c-0.49,0.16-0.99,0.27-1.49,0.37c-0.51,0.1,0.63-0.06,0.11-0.01c-0.14,0.01-0.28,0.03-0.42,0.03
					c-0.28,0.02-0.57,0.02-0.85,0.01c-1.31-0.03-2.56,1.17-2.5,2.5C415.11,263.09,416.15,264.17,417.55,264.2L417.55,264.2z"/>
			</g>
		</g>
		<g>
			<g>
				<linearGradient id="SVGID_9_" gradientUnits="userSpaceOnUse" x1="396.7789" y1="271.412" x2="409.539" y2="271.412">
					<stop  offset="0" style="stop-color:#FFF33B"/>
					<stop  offset="0.0595" style="stop-color:#FFE029"/>
					<stop  offset="0.1303" style="stop-color:#FFD217"/>
					<stop  offset="0.2032" style="stop-color:#FEC90E"/>
					<stop  offset="0.2809" style="stop-color:#FDC70C"/>
					<stop  offset="0.6685" style="stop-color:#F3903F"/>
					<stop  offset="0.8876" style="stop-color:#ED683C"/>
					<stop  offset="1" style="stop-color:#E93E3A"/>
				</linearGradient>
				<path class="st9" d="M406.38,268.09c0.08,0.21,0.1,0.57,0.21,0.75c-0.05-0.39-0.06-0.48-0.05-0.29c0,0.08,0.01,0.15,0,0.23
					c0,0.08-0.04,0.23-0.02,0.3c0.06-0.39,0.07-0.48,0.03-0.29c-0.01,0.08-0.03,0.15-0.05,0.23c-0.03,0.13-0.09,0.25-0.12,0.37
					c-0.06,0.27,0.28-0.52,0.03-0.08c-0.07,0.12-0.13,0.24-0.2,0.36c-0.07,0.12-0.15,0.23-0.23,0.35c-0.24,0.38,0.23-0.25,0.03-0.03
					c-0.2,0.21-0.39,0.43-0.6,0.63c-0.11,0.1-0.22,0.2-0.33,0.29c-0.45,0.39,0.44-0.28-0.07,0.04c-0.26,0.16-0.51,0.33-0.78,0.47
					c-0.14,0.08-0.29,0.15-0.44,0.22c-0.12,0.06-0.5,0.3-0.06,0.03c-0.27,0.17-0.66,0.24-0.97,0.34c-0.66,0.2-1.33,0.36-2.01,0.48
					c-0.34,0.06-0.69,0.13-1.04,0.17c0.62-0.06-0.09,0.01-0.17,0.02c-0.17,0.02-0.35,0.04-0.53,0.06c-0.73,0.07-1.47,0.13-2.21,0.18
					c-1.3,0.1-2.56,1.08-2.5,2.5c0.06,1.27,1.1,2.6,2.5,2.5c3.52-0.26,7.33-0.53,10.41-2.44c2.81-1.75,5.29-5.29,3.98-8.72
					c-0.47-1.22-1.7-2.19-3.08-1.75C406.94,265.39,405.88,266.78,406.38,268.09L406.38,268.09z"/>
			</g>
		</g>
		<g>
			<g>
				<linearGradient id="SVGID_10_" gradientUnits="userSpaceOnUse" x1="418.8242" y1="273.6356" x2="427.9356" y2="273.6356">
					<stop  offset="0" style="stop-color:#FFF33B"/>
					<stop  offset="0.0595" style="stop-color:#FFE029"/>
					<stop  offset="0.1303" style="stop-color:#FFD217"/>
					<stop  offset="0.2032" style="stop-color:#FEC90E"/>
					<stop  offset="0.2809" style="stop-color:#FDC70C"/>
					<stop  offset="0.6685" style="stop-color:#F3903F"/>
					<stop  offset="0.8876" style="stop-color:#ED683C"/>
					<stop  offset="1" style="stop-color:#E93E3A"/>
				</linearGradient>
				<path class="st10" d="M418.89,279.61c2.89,0.38,5.8-0.79,7.98-2.62c0.94-0.79,1.77-1.83,2.29-2.95
					c0.28-0.62,0.53-1.24,0.64-1.92c0.15-0.96,0.14-1.73-0.02-2.69c-0.1-0.58-0.66-1.21-1.15-1.49c-0.54-0.31-1.33-0.45-1.93-0.25
					c-0.6,0.2-1.19,0.57-1.49,1.15c-0.33,0.63-0.37,1.23-0.25,1.93c0.01,0.07,0.02,0.14,0.03,0.21c-0.03-0.22-0.06-0.44-0.09-0.66
					c0.04,0.39,0.04,0.77-0.01,1.15c0.03-0.22,0.06-0.44,0.09-0.66c-0.05,0.33-0.14,0.65-0.25,0.97c-0.07,0.19-0.24,0.41,0.11-0.25
					c-0.03,0.06-0.06,0.13-0.09,0.2c-0.07,0.15-0.15,0.29-0.24,0.43c-0.1,0.16-0.2,0.31-0.31,0.47c-0.05,0.08-0.24,0.32,0.02-0.03
					c0.27-0.36,0.05-0.07-0.02,0.01c-0.24,0.28-0.5,0.54-0.78,0.78c-0.06,0.05-0.12,0.1-0.18,0.15c-0.22,0.19,0.5-0.37,0.18-0.14
					c-0.15,0.1-0.29,0.21-0.45,0.31c-0.32,0.21-0.66,0.39-1.01,0.56c-0.07,0.03-0.15,0.07-0.22,0.1c0.69-0.32,0.37-0.16,0.2-0.09
					c-0.17,0.06-0.35,0.12-0.52,0.18c-0.4,0.12-0.8,0.2-1.21,0.26c0.22-0.03,0.44-0.06,0.66-0.09c-0.66,0.08-1.32,0.09-1.99,0
					c-0.59-0.08-1.37,0.34-1.77,0.73c-0.43,0.43-0.76,1.14-0.73,1.77c0.03,0.65,0.24,1.32,0.73,1.77
					C417.65,279.36,418.2,279.52,418.89,279.61L418.89,279.61z"/>
			</g>
		</g>
		<g>
			<g>
				<linearGradient id="SVGID_11_" gradientUnits="userSpaceOnUse" x1="385.8586" y1="265.2363" x2="438.2871" y2="265.2363">
					<stop  offset="0" style="stop-color:#FFF33B"/>
					<stop  offset="0.0595" style="stop-color:#FFE029"/>
					<stop  offset="0.1303" style="stop-color:#FFD217"/>
					<stop  offset="0.2032" style="stop-color:#FEC90E"/>
					<stop  offset="0.2809" style="stop-color:#FDC70C"/>
					<stop  offset="0.6685" style="stop-color:#F3903F"/>
					<stop  offset="0.8876" style="stop-color:#ED683C"/>
					<stop  offset="1" style="stop-color:#E93E3A"/>
				</linearGradient>
				<path class="st11" d="M384.45,272.68c5.13,5.32,11.33,9.6,18.05,12.67c6.39,2.92,13.44,5.26,20.56,4.88
					c3.27-0.17,6.65-0.9,9.43-2.71c3.21-2.09,5.07-5.25,6.24-8.83c2.04-6.23,2.03-13.11,0.17-19.38
					c-2.24-7.56-6.99-13.96-13.2-18.74c-1.07-0.82-2.8-0.16-3.42,0.9c-0.75,1.29-0.18,2.59,0.9,3.42
					c9.05,6.97,14.09,18.94,11.37,30.22c-0.67,2.77-1.63,5.73-3.91,7.6c-1.84,1.52-4.34,2.24-6.68,2.45
					c-6.11,0.56-12.22-1.24-17.78-3.62c-6.8-2.91-13.05-7.07-18.19-12.4C385.75,266.83,382.22,270.37,384.45,272.68L384.45,272.68z"
					/>
			</g>
		</g>
		<g>
			<g>
				<linearGradient id="SVGID_12_" gradientUnits="userSpaceOnUse" x1="387.5652" y1="252.1357" x2="400.1913" y2="252.1357">
					<stop  offset="0" style="stop-color:#FFF33B"/>
					<stop  offset="0.0595" style="stop-color:#FFE029"/>
					<stop  offset="0.1303" style="stop-color:#FFD217"/>
					<stop  offset="0.2032" style="stop-color:#FEC90E"/>
					<stop  offset="0.2809" style="stop-color:#FDC70C"/>
					<stop  offset="0.6685" style="stop-color:#F3903F"/>
					<stop  offset="0.8876" style="stop-color:#ED683C"/>
					<stop  offset="1" style="stop-color:#E93E3A"/>
				</linearGradient>
				<path class="st12" d="M400.71,245.9c-2.63-0.52-5.23-0.95-7.9-0.58c-2.1,0.29-4.31,1.27-5.7,2.91c-1.63,1.93-2.05,4.57-0.7,6.79
					c1.2,1.96,3.37,3.29,5.59,3.75c2.93,0.62,5.86,0.17,8.78-0.32c1.29-0.21,2.13-1.88,1.75-3.08c-0.45-1.4-1.69-1.98-3.08-1.75
					c-0.45,0.07-0.9,0.15-1.36,0.22c-0.16,0.02-0.68,0.1-0.25,0.04c-0.3,0.04-0.61,0.07-0.91,0.1c-0.94,0.09-1.89,0.13-2.83,0.06
					c-0.11-0.01-0.22-0.02-0.33-0.03c-0.04,0-0.4-0.06-0.11-0.01c0.29,0.05-0.07-0.02-0.11-0.03c-0.11-0.02-0.22-0.04-0.33-0.07
					c-0.11-0.02-1.15-0.37-1.17-0.36c0.05-0.06,0.44,0.21,0.09,0.03c-0.08-0.04-0.16-0.08-0.24-0.13c-0.16-0.09-0.31-0.18-0.46-0.28
					c-0.02-0.02-0.2-0.16-0.22-0.15c0.01-0.01,0.36,0.31,0.16,0.12c-0.15-0.14-0.3-0.26-0.44-0.41c-0.06-0.06-0.11-0.13-0.17-0.18
					c-0.19-0.18,0.13,0.16,0.13,0.19c-0.03-0.12-0.19-0.3-0.26-0.4c-0.24-0.35,0.11,0.43,0,0.03c-0.03-0.11-0.16-0.68-0.09-0.27
					c0.08,0.54,0.02-0.29,0.03-0.29c0.04,0.04-0.13,0.5-0.03,0.28c0.03-0.06,0.04-0.16,0.06-0.22c0.08-0.41-0.24,0.38-0.02,0.03
					c0.06-0.1,0.38-0.56,0.15-0.28c-0.25,0.29,0.11-0.11,0.18-0.18c0.12-0.12,0.25-0.23,0.37-0.34c0.19-0.18-0.15,0.13-0.17,0.13
					c0.04,0,0.18-0.12,0.22-0.15c0.17-0.11,0.35-0.22,0.53-0.32c0.09-0.05,0.69-0.32,0.36-0.18c-0.32,0.13,0.21-0.07,0.3-0.1
					c0.38-0.12,0.77-0.22,1.16-0.29c0.03-0.01,0.41-0.05,0.12-0.02c-0.29,0.03,0.19-0.01,0.24-0.01c0.27-0.02,0.53-0.03,0.8-0.03
					c0.53,0,1.07,0.03,1.6,0.08c0.15,0.01,0.3,0.03,0.46,0.05c0.23,0.03,0.27,0.04,0.02,0c0.26,0.04,0.53,0.08,0.79,0.13
					c0.56,0.1,1.12,0.21,1.68,0.32c1.28,0.25,2.76-0.36,3.08-1.75C402.73,247.74,402.08,246.17,400.71,245.9L400.71,245.9z"/>
			</g>
		</g>
		<g>
			<g>
				<linearGradient id="SVGID_13_" gradientUnits="userSpaceOnUse" x1="399.6881" y1="247.6895" x2="410.1089" y2="247.6895">
					<stop  offset="0" style="stop-color:#FFF33B"/>
					<stop  offset="0.0595" style="stop-color:#FFE029"/>
					<stop  offset="0.1303" style="stop-color:#FFD217"/>
					<stop  offset="0.2032" style="stop-color:#FEC90E"/>
					<stop  offset="0.2809" style="stop-color:#FDC70C"/>
					<stop  offset="0.6685" style="stop-color:#F3903F"/>
					<stop  offset="0.8876" style="stop-color:#ED683C"/>
					<stop  offset="1" style="stop-color:#E93E3A"/>
				</linearGradient>
				<path class="st13" d="M402.71,247.76c-0.05-0.29-0.05-0.27,0.01,0.06c-0.01-0.14-0.02-0.27-0.02-0.41
					c-0.01-0.27,0.01-0.55,0.03-0.82c-0.05,0.65,0.06-0.22,0.1-0.35c0.07-0.27,0.16-0.53,0.26-0.8c-0.21,0.55,0.15-0.26,0.2-0.36
					c0.14-0.25,0.3-0.49,0.47-0.73c-0.25,0.35,0.06-0.07,0.16-0.18c0.2-0.22,0.43-0.42,0.64-0.63c0.21-0.18,0.19-0.16-0.06,0.04
					c0.11-0.08,0.22-0.15,0.33-0.22c0.23-0.14,0.47-0.26,0.71-0.38c-0.55,0.26,0.23-0.06,0.35-0.09c0.19-0.05,0.94-0.07,0.3-0.08
					c0.08,0,0.5-0.08,0.57,0c-0.36-0.06-0.4-0.06-0.13-0.01c0.26,0.08,0.23,0.06-0.1-0.08c0.11,0.05,0.21,0.11,0.3,0.17
					c-0.28-0.23-0.3-0.23-0.07,0c-0.16-0.2-0.17-0.18-0.02,0.06c-0.1-0.25-0.11-0.24-0.01,0.03c0.06,0.27,0.15,0.54,0.21,0.82
					c0.03,0.12,0.16,1.01,0.08,0.35c0.06,0.48,0.09,0.96,0.08,1.44c0,0.28-0.01,0.55-0.03,0.83c-0.01,0.14-0.02,0.28-0.04,0.41
					c0.05-0.32,0.05-0.34,0.01-0.05c-0.1,0.55-0.22,1.09-0.38,1.63c-0.08,0.27-0.18,0.53-0.27,0.8c-0.23,0.65,0.22-0.44-0.07,0.19
					c-0.24,0.52-0.51,1.03-0.81,1.53c-0.15,0.25-0.31,0.49-0.48,0.73c-0.08,0.12-0.17,0.24-0.26,0.36c0.17-0.21,0.16-0.21-0.02,0.02
					c-0.4,0.45-0.8,0.9-1.24,1.31c-0.95,0.9-0.98,2.64,0,3.54c1.02,0.93,2.52,0.97,3.54,0c3.44-3.29,5.57-8.14,4.95-12.94
					c-0.17-1.32-0.39-2.79-1.17-3.91c-0.94-1.36-2.28-2.05-3.9-2.22c-2.45-0.26-5.05,1.1-6.63,2.9c-2.07,2.36-2.95,5.28-2.42,8.37
					c0.22,1.29,1.88,2.13,3.08,1.75C402.35,250.38,402.94,249.14,402.71,247.76L402.71,247.76z"/>
			</g>
		</g>
		<g>
			<g>
				<linearGradient id="SVGID_14_" gradientUnits="userSpaceOnUse" x1="402.7165" y1="255.8775" x2="405.3051" y2="255.8775">
					<stop  offset="0" style="stop-color:#FFF33B"/>
					<stop  offset="0.0595" style="stop-color:#FFE029"/>
					<stop  offset="0.1303" style="stop-color:#FFD217"/>
					<stop  offset="0.2032" style="stop-color:#FEC90E"/>
					<stop  offset="0.2809" style="stop-color:#FDC70C"/>
					<stop  offset="0.6685" style="stop-color:#F3903F"/>
					<stop  offset="0.8876" style="stop-color:#ED683C"/>
					<stop  offset="1" style="stop-color:#E93E3A"/>
				</linearGradient>
				<path class="st14" d="M402.76,258.49c0.83-0.07,1.67-0.14,2.5-0.22c0.34,0.01,0.67-0.06,0.96-0.22c0.31-0.1,0.58-0.27,0.8-0.52
					c0.24-0.23,0.42-0.49,0.52-0.8c0.16-0.3,0.23-0.62,0.22-0.96c-0.03-0.22-0.06-0.44-0.09-0.66c-0.12-0.42-0.33-0.79-0.64-1.1
					c-0.17-0.13-0.34-0.26-0.51-0.39c-0.39-0.23-0.81-0.34-1.26-0.34c-0.83,0.07-1.67,0.14-2.5,0.22c-0.34-0.01-0.67,0.06-0.96,0.22
					c-0.31,0.1-0.58,0.27-0.8,0.52c-0.24,0.23-0.42,0.49-0.52,0.8c-0.16,0.3-0.23,0.62-0.22,0.96c0.03,0.22,0.06,0.44,0.09,0.66
					c0.12,0.42,0.33,0.79,0.64,1.1c0.17,0.13,0.34,0.26,0.51,0.39C401.89,258.37,402.31,258.48,402.76,258.49L402.76,258.49z"/>
			</g>
		</g>
		<g>
			<g>
				<linearGradient id="SVGID_15_" gradientUnits="userSpaceOnUse" x1="309.6284" y1="216.6747" x2="362.543" y2="216.6747">
					<stop  offset="0" style="stop-color:#FFF33B"/>
					<stop  offset="0.0595" style="stop-color:#FFE029"/>
					<stop  offset="0.1303" style="stop-color:#FFD217"/>
					<stop  offset="0.2032" style="stop-color:#FEC90E"/>
					<stop  offset="0.2809" style="stop-color:#FDC70C"/>
					<stop  offset="0.6685" style="stop-color:#F3903F"/>
					<stop  offset="0.8876" style="stop-color:#ED683C"/>
					<stop  offset="1" style="stop-color:#E93E3A"/>
				</linearGradient>
				<path class="st15" d="M307.71,197.64c1.01,4.11,4.86,6.75,7.94,9.3c3.43,2.84,6.93,5.6,10.47,8.3
					c7.06,5.38,14.35,10.46,21.82,15.25c4.3,2.76,8.66,5.41,13.08,7.97c2.79,1.62,5.31-2.7,2.52-4.32
					c-14.73-8.54-28.86-18.15-42.09-28.87c-1.81-1.46-3.6-2.94-5.37-4.45c-1.45-1.24-3.09-2.57-3.57-4.51
					C311.76,193.19,306.94,194.51,307.71,197.64L307.71,197.64z"/>
			</g>
		</g>
		<g>
			<g>
				<linearGradient id="SVGID_16_" gradientUnits="userSpaceOnUse" x1="370.6594" y1="193.9774" x2="394.179" y2="193.9774">
					<stop  offset="0" style="stop-color:#FFF33B"/>
					<stop  offset="0.0595" style="stop-color:#FFE029"/>
					<stop  offset="0.1303" style="stop-color:#FFD217"/>
					<stop  offset="0.2032" style="stop-color:#FEC90E"/>
					<stop  offset="0.2809" style="stop-color:#FDC70C"/>
					<stop  offset="0.6685" style="stop-color:#F3903F"/>
					<stop  offset="0.8876" style="stop-color:#ED683C"/>
					<stop  offset="1" style="stop-color:#E93E3A"/>
				</linearGradient>
				<path class="st16" d="M368.9,167.01c9.44,12.68,16.42,27.08,20.06,42.49c0.99,4.19,1.74,8.43,2.22,12.7
					c0.15,1.34,1.04,2.5,2.5,2.5c1.24,0,2.65-1.15,2.5-2.5c-1.8-16.22-7.02-31.9-15.22-46.01c-2.35-4.05-4.95-7.95-7.74-11.7
					c-0.81-1.08-2.16-1.63-3.42-0.9C368.73,164.21,368.09,165.92,368.9,167.01L368.9,167.01z"/>
			</g>
		</g>
		<g>
			<g>
				<linearGradient id="SVGID_17_" gradientUnits="userSpaceOnUse" x1="369.4639" y1="196.6336" x2="392.7314" y2="196.6336">
					<stop  offset="0" style="stop-color:#FFF33B"/>
					<stop  offset="0.0595" style="stop-color:#FFE029"/>
					<stop  offset="0.1303" style="stop-color:#FFD217"/>
					<stop  offset="0.2032" style="stop-color:#FEC90E"/>
					<stop  offset="0.2809" style="stop-color:#FDC70C"/>
					<stop  offset="0.6685" style="stop-color:#F3903F"/>
					<stop  offset="0.8876" style="stop-color:#ED683C"/>
					<stop  offset="1" style="stop-color:#E93E3A"/>
				</linearGradient>
				<path class="st17" d="M367.46,166.38c0.76,17.91,2.72,36.61,13.41,51.65c2.8,3.93,6.05,7.5,9.78,10.57
					c1.04,0.86,2.52,1.02,3.54,0c0.88-0.88,1.05-2.67,0-3.54c-6.13-5.03-10.86-11.38-14.22-18.55c-3.6-7.67-5.44-16.13-6.4-24.51
					c-0.59-5.19-0.88-10.4-1.1-15.62C372.33,163.17,367.33,163.16,367.46,166.38L367.46,166.38z"/>
			</g>
		</g>
		<g>
			<g>
				<linearGradient id="SVGID_18_" gradientUnits="userSpaceOnUse" x1="311.0462" y1="218.1284" x2="365.1326" y2="218.1284">
					<stop  offset="0" style="stop-color:#FFF33B"/>
					<stop  offset="0.0595" style="stop-color:#FFE029"/>
					<stop  offset="0.1303" style="stop-color:#FFD217"/>
					<stop  offset="0.2032" style="stop-color:#FEC90E"/>
					<stop  offset="0.2809" style="stop-color:#FDC70C"/>
					<stop  offset="0.6685" style="stop-color:#F3903F"/>
					<stop  offset="0.8876" style="stop-color:#ED683C"/>
					<stop  offset="1" style="stop-color:#E93E3A"/>
				</linearGradient>
				<path class="st18" d="M311.07,199.15c4.61-0.11,8.64,2.14,12.46,4.46c3.92,2.38,7.72,4.96,11.38,7.73
					c6.99,5.3,13.42,11.39,19.09,18.07c3.11,3.66,5.95,7.52,8.55,11.55c1.74,2.7,6.07,0.19,4.32-2.52
					c-10.17-15.77-24.13-28.88-40.09-38.7c-4.79-2.95-9.92-5.74-15.71-5.59C307.85,194.23,307.84,199.23,311.07,199.15
					L311.07,199.15z"/>
			</g>
		</g>
		<g>
			<g>
				<linearGradient id="SVGID_19_" gradientUnits="userSpaceOnUse" x1="372.7929" y1="288.7138" x2="409.6216" y2="288.7138">
					<stop  offset="0" style="stop-color:#FFF33B"/>
					<stop  offset="0.0595" style="stop-color:#FFE029"/>
					<stop  offset="0.1303" style="stop-color:#FFD217"/>
					<stop  offset="0.2032" style="stop-color:#FEC90E"/>
					<stop  offset="0.2809" style="stop-color:#FDC70C"/>
					<stop  offset="0.6685" style="stop-color:#F3903F"/>
					<stop  offset="0.8876" style="stop-color:#ED683C"/>
					<stop  offset="1" style="stop-color:#E93E3A"/>
				</linearGradient>
				<path class="st19" d="M371.29,283.38c-2.18,6.44,3.23,12.7,9.25,14.25c6.19,1.6,13.03-1.56,15.61-7.46
					c1.36-3.1,1.39-6.62-0.44-9.55c-1.31,1.01-2.62,2.02-3.93,3.03c2.68,2.88,5.76,5.76,9.82,6.36c3.59,0.53,7.82-0.46,9.74-3.82
					c1.6-2.8-2.72-5.32-4.32-2.52c-0.37,0.65-1.04,1.05-1.97,1.3c-1,0.27-2.09,0.29-3.09,0.04c-2.77-0.67-4.78-2.9-6.64-4.9
					c-1.92-2.07-5.44,0.62-3.93,3.03c0.61,0.97,0.79,1.78,0.77,2.87c-0.02,0.86-0.43,2.01-0.99,2.94c-1.21,2.01-3.33,3.52-5.73,3.98
					c-2.53,0.49-5.29-0.34-7.23-2.03c-0.86-0.76-1.68-1.79-2.05-2.77c-0.48-1.24-0.47-2.19-0.04-3.44
					C377.14,281.66,372.31,280.35,371.29,283.38L371.29,283.38z"/>
			</g>
		</g>
	</g>
</g>
</svg>
